<?xml version="1.0" standalone="no"?>
<!DOCTYPE svg PUBLIC "-//W3C//DTD SVG 20010904//EN"
 "http://www.w3.org/TR/2001/REC-SVG-20010904/DTD/svg10.dtd">
<svg version="1.0" xmlns="http://www.w3.org/2000/svg"
 width="640.000000pt" height="640.000000pt" viewBox="0 0 640.000000 640.000000"
 preserveAspectRatio="xMidYMid meet">

<g transform="translate(0.000000,640.000000) scale(0.100000,-0.100000)"
fill="#000000" stroke="none">
<path d="M0 3200 l0 -3200 3200 0 3200 0 0 3200 0 3200 -3200 0 -3200 0 0
-3200z m3402 2553 c2 -65 0 -125 -4 -133 -4 -8 -8 40 -8 106 l0 121 -63 7
c-35 3 -77 3 -94 0 -18 -3 -33 -1 -37 5 -5 8 24 11 98 11 l104 0 4 -117z m451
77 c187 -28 322 -57 350 -75 13 -8 33 -32 45 -54 l22 -39 0 -1006 0 -1007 -35
-15 c-45 -18 -55 -18 -55 3 0 12 3 14 11 6 7 -7 17 -7 35 1 l24 11 0 1009 c0
998 0 1009 -20 1042 -13 21 -36 38 -63 48 -65 24 -433 84 -474 77 -5 0 -10
-378 -13 -838 l-5 -838 -3 848 -2 847 23 0 c12 0 84 -9 160 -20z m-1003 -7
c16 -9 33 -27 39 -40 7 -15 11 -110 11 -256 l0 -231 -60 -61 -61 -61 61 -48
60 -47 -2 -222 -3 -222 -2 216 -3 216 -66 53 -65 53 66 67 66 67 -3 231 c-3
228 -3 231 -27 256 -31 33 -70 34 -240 6 -146 -24 -206 -38 -243 -57 -57 -28
-56 -17 -59 -662 -2 -325 -6 -594 -11 -597 -4 -3 -8 262 -8 588 0 558 1 595
18 628 33 62 93 81 412 133 56 9 93 6 120 -10z m330 -220 c0 -108 -2 -194 -5
-191 -3 3 -6 76 -6 164 -1 198 0 224 6 224 3 0 5 -88 5 -197z m1301 86 c135
-40 337 -116 371 -140 15 -11 37 -36 50 -57 l23 -37 3 -1011 c2 -832 0 -1013
-11 -1022 -11 -9 -226 -42 -273 -42 -13 0 -256 197 -286 232 -17 19 -18 71
-18 772 0 583 3 756 13 769 10 14 11 -137 9 -749 -2 -606 0 -770 10 -782 7 -8
68 -62 136 -119 93 -78 130 -103 152 -103 27 0 149 14 218 26 l32 5 -2 1018
-3 1018 -27 35 c-37 49 -156 97 -495 202 l-23 7 0 -268 c0 -178 -4 -263 -10
-253 -11 16 -13 513 -3 524 10 10 26 7 134 -25z m-2286 -14 l25 -24 0 -241 0
-241 -57 -70 c-32 -41 -52 -73 -47 -77 6 -4 31 -20 57 -37 l46 -30 3 -265 c2
-146 0 -269 -4 -275 -5 -5 -8 111 -8 258 l0 267 -46 33 c-26 17 -53 37 -62 43
-12 9 -5 23 47 88 l61 77 0 230 c0 216 -1 230 -20 249 -31 31 -74 25 -237 -31
-182 -63 -235 -89 -265 -131 l-23 -33 -3 -1017 -2 -1016 37 -6 c21 -3 60 -8
86 -12 l48 -6 -1 633 c-2 720 -2 669 8 669 9 0 4 -1302 -6 -1311 -9 -9 -149 9
-173 22 -18 9 -19 42 -19 1002 0 628 4 1005 10 1028 24 86 77 118 350 210 136
46 162 48 195 14z m510 -180 c-2 -109 -6 -150 -17 -163 -8 -9 -49 -57 -91
-105 -43 -48 -76 -91 -73 -95 3 -4 -4 -9 -15 -9 -18 -2 -19 7 -19 242 l0 244
53 10 c28 5 61 12 72 14 11 3 36 5 57 6 l36 1 -3 -145z m1299 117 c16 -9 37
-28 47 -42 18 -24 19 -61 19 -745 0 -396 -1 -727 -2 -735 -2 -8 -5 317 -8 722
l-5 738 -27 26 c-18 18 -46 31 -85 39 -32 7 -60 11 -63 9 -3 -1 -5 -336 -5
-743 0 -408 -3 -741 -7 -741 -5 0 -8 338 -8 751 l0 751 58 -7 c31 -4 70 -14
86 -23z m-600 -27 c-4 -8 -8 -15 -10 -15 -2 0 -4 7 -4 15 0 8 4 15 10 15 5 0
7 -7 4 -15z m-7 -307 c-1 -40 -3 -8 -3 72 0 80 2 112 3 73 2 -40 2 -106 0
-145z m-1367 56 l0 -146 -92 -122 c-50 -66 -95 -125 -100 -130 -4 -6 -8 100
-8 235 l0 244 88 32 c48 17 93 32 100 32 9 1 12 -35 12 -145z m2583 126 c58
-22 100 -59 116 -103 8 -19 11 -298 11 -863 0 -932 3 -896 -65 -908 -33 -7
-41 -3 -91 39 l-54 47 0 904 c0 787 2 904 15 904 8 0 38 -9 68 -20z m-3069
-31 l26 -20 0 -1017 0 -1017 -131 -140 c-149 -159 -138 -153 -305 -154 -73 -1
-103 3 -105 12 -2 6 -4 464 -4 1017 l0 1005 22 40 c27 50 60 80 147 134 91 57
292 161 309 161 8 0 26 -9 41 -21z m3649 -37 c160 -84 279 -164 312 -210 l30
-44 3 -189 3 -189 -25 0 c-27 0 -48 26 -124 156 -36 60 -42 78 -42 126 l0 57
-57 34 c-32 19 -68 40 -80 46 l-23 12 0 -180 0 -179 98 -55 c152 -87 144 -74
86 -146 -27 -33 -55 -61 -63 -61 -7 0 -38 14 -67 31 l-54 30 0 -613 0 -614 48
-52 c39 -42 54 -52 80 -52 l32 0 0 390 0 391 48 20 c74 32 97 34 121 10 21
-21 21 -26 21 -526 l0 -505 -112 1 c-62 1 -125 4 -140 8 -17 4 -73 56 -157
146 l-131 140 0 1016 c0 955 1 1017 18 1031 40 36 54 33 175 -30z m-2013 -77
c0 -8 -4 -15 -10 -15 -5 0 -7 7 -4 15 4 8 8 15 10 15 2 0 4 -7 4 -15z m-2980
-5 c0 -5 -4 -10 -9 -10 -5 0 -17 -3 -27 -7 -11 -4 -15 -3 -10 5 4 6 -4 12 -21
15 -18 2 -10 5 20 6 26 0 47 -3 47 -9z m-5 -30 c4 -6 -12 -9 -42 -9 -47 2 -47
2 -13 9 19 4 38 8 42 9 4 0 10 -3 13 -9z m2982 -42 c-3 -8 -6 -5 -6 6 -1 11 2
17 5 13 3 -3 4 -12 1 -19z m220 -941 c-1 -166 -2 -30 -2 303 0 333 1 469 2
302 2 -166 2 -438 0 -605z m2313 765 l75 -57 36 -170 c20 -94 52 -244 72 -335
l35 -165 1 263 c1 217 3 262 15 262 8 0 48 -32 90 -71 l76 -71 0 -1044 c0
-892 -2 -1045 -14 -1050 -16 -6 -134 24 -153 39 -10 7 -13 113 -13 466 l-1
456 -68 340 -69 340 -1 -727 c-1 -461 -5 -729 -11 -733 -5 -3 -46 43 -90 102
l-80 108 0 1053 c0 835 3 1052 13 1052 6 -1 46 -27 87 -58z m-3012 -314 l-3
-353 -5 339 -5 340 -87 -99 -88 -99 0 -293 c0 -184 -4 -294 -10 -298 -7 -4
-10 96 -10 293 l0 300 101 111 c56 61 103 111 105 111 2 0 3 -159 2 -352z
m482 336 c0 -8 -5 -12 -10 -9 -6 4 -8 11 -5 16 9 14 15 11 15 -7z m-3050 -4
c0 -5 -4 -10 -10 -10 -5 0 -10 5 -10 10 0 6 5 10 10 10 6 0 10 -4 10 -10z
m808 -16 c21 -15 22 -21 22 -188 0 -160 -2 -175 -21 -200 -23 -30 -35 -31
-104 -8 l-50 17 -5 53 -5 53 -72 -61 -73 -61 0 -176 c0 -139 3 -173 13 -166 6
5 49 40 93 76 76 62 104 78 104 60 0 -5 -18 -60 -41 -123 -39 -110 -44 -118
-105 -175 l-64 -60 -3 -724 -2 -724 -68 -19 c-38 -11 -75 -17 -83 -14 -12 5
-14 148 -12 1023 l3 1018 29 58 c29 60 127 154 301 289 94 73 106 78 143 52z
m2238 -101 c-11 -11 -17 4 -9 23 7 18 8 18 11 1 2 -10 1 -21 -2 -24z m-1149
-260 c-1 -43 -3 -8 -3 77 0 85 2 120 3 78 2 -43 2 -113 0 -155z m1158 154 c-1
-12 -3 -28 -4 -35 -2 -26 -17 -3 -15 25 1 15 3 35 3 43 1 12 3 12 10 2 4 -8 7
-23 6 -35z m-3022 26 c-54 -5 -56 -23 -3 -23 22 0 40 -4 40 -10 0 -12 -60 -13
-79 -1 -28 18 -4 41 41 39 l43 -1 -42 -4z m2967 -123 c0 -5 -2 -10 -4 -10 -3
0 -8 5 -11 10 -3 6 -1 10 4 10 6 0 11 -4 11 -10z m-3000 -110 c0 -5 -5 -10
-11 -10 -5 0 -7 5 -4 10 3 6 8 10 11 10 2 0 4 -4 4 -10z m3052 -165 c3 -60 1
-121 -3 -135 -5 -17 -8 -3 -9 45 -5 157 -7 181 -14 210 -8 28 -7 29 7 10 9
-14 16 -55 19 -130z m-282 -110 c0 -124 -3 -225 -7 -225 -5 0 -7 101 -5 225 1
124 5 225 7 225 3 0 5 -101 5 -225z m-778 -819 l88 74 3 328 2 327 2 -335 2
-335 -92 -77 c-51 -42 -95 -74 -99 -71 -5 2 -7 241 -6 531 l3 527 5 -522 5
-522 87 75z m-1923 872 c-1 -17 -2 -19 -6 -5 -5 19 -33 24 -33 5 0 -9 -2 -10
-8 -2 -4 7 -16 14 -27 17 -11 2 1 5 28 6 43 1 47 -1 46 -21z m3956 12 c3 -6
-1 -7 -9 -4 -18 7 -21 14 -7 14 6 0 13 -4 16 -10z m-1844 -43 c-8 -8 -11 -7
-11 4 0 20 13 34 18 19 3 -7 -1 -17 -7 -23z m-131 -7 c0 -5 -4 -10 -10 -10 -5
0 -10 5 -10 10 0 6 5 10 10 10 6 0 10 -4 10 -10z m120 -153 c22 -23 22 -26 21
-303 l-2 -281 140 -42 140 -42 82 51 c44 28 84 49 87 46 7 -7 13 -3 -86 -63
l-83 -51 -117 35 c-64 19 -132 41 -149 49 l-33 13 0 280 c0 175 -4 282 -10
286 -15 9 -32 45 -21 45 5 0 19 -10 31 -23z m258 -26 c40 -20 69 -48 60 -56
-3 -3 -26 3 -52 14 -25 11 -53 18 -61 15 -9 -4 -15 0 -15 9 0 9 -14 17 -35 21
-19 4 -35 11 -35 17 0 15 96 1 138 -20z m142 -35 c0 -24 3 -51 6 -60 3 -9 1
-16 -4 -16 -6 0 -14 17 -18 38 -4 20 -10 44 -15 53 -9 18 -3 29 18 29 9 0 13
-14 13 -44z m476 -12 c-3 -8 -10 -14 -16 -14 -10 0 -4 43 9 65 8 13 14 -32 7
-51z m-738 -3 c3 -8 -1 -12 -9 -9 -7 2 -15 10 -17 17 -3 8 1 12 9 9 7 -2 15
-10 17 -17z m740 -168 l-2 -138 -6 120 c-5 111 -4 155 6 155 2 0 3 -62 2 -137z
m697 52 c0 -47 -3 -85 -7 -85 -5 0 -8 38 -8 85 0 47 3 85 8 85 4 0 7 -38 7
-85z m-189 -20 c2 -20 -2 -25 -19 -25 -16 0 -18 3 -9 12 7 7 12 21 12 32 0 27
13 12 16 -19z m-1176 -98 l0 -124 42 -16 c39 -16 43 -16 75 4 47 29 53 17 8
-14 l-37 -25 -51 17 -52 18 -3 131 c-2 86 1 132 8 132 6 0 10 -46 10 -123z
m-2312 81 c2 -10 -1 -18 -7 -18 -6 0 -8 7 -5 15 5 11 -1 15 -24 15 -17 0 -34
-5 -38 -12 -5 -8 0 -9 15 -5 15 3 21 1 18 -6 -2 -7 -13 -10 -23 -9 -25 5 -28
8 -20 27 9 23 80 17 84 -7z m3392 -8 c0 -25 -17 -35 -35 -20 -11 9 -23 7 -52
-6 -21 -10 -41 -23 -45 -28 -5 -7 -11 -7 -19 1 -10 10 4 20 61 47 76 37 90 38
90 6z m521 -88 c23 -25 22 -25 -9 2 -34 31 -46 18 -15 -16 16 -18 16 -18 0
-12 -21 8 -22 -4 -1 -27 9 -10 11 -20 6 -23 -6 -3 -17 6 -27 20 -9 14 -30 30
-46 36 -39 14 -32 20 9 9 l32 -10 0 53 c0 63 13 82 21 32 3 -20 17 -49 30 -64z
m-1407 73 c3 -8 1 -15 -4 -15 -6 0 -10 7 -10 15 0 8 2 15 4 15 2 0 6 -7 10
-15z m377 -8 c-10 -9 -11 -8 -5 6 3 10 9 15 12 12 3 -3 0 -11 -7 -18z m320
-78 c1 -96 0 -99 -8 -99 -5 0 -7 30 -6 67 1 38 2 79 2 92 1 13 3 22 6 19 3 -3
6 -39 6 -79z m-46 27 c-11 -8 -24 -12 -28 -9 -5 3 -15 -3 -22 -13 -8 -11 -15
-14 -15 -8 0 15 19 30 45 37 36 9 39 7 20 -7z m465 -2 l25 -15 -25 7 c-14 3
-29 10 -34 15 -16 14 6 10 34 -7z m60 -25 c0 -5 -4 -9 -10 -9 -5 0 -10 7 -10
16 0 8 5 12 10 9 6 -3 10 -10 10 -16z m90 11 c0 -5 -2 -10 -4 -10 -3 0 -8 5
-11 10 -3 6 -1 10 4 10 6 0 11 -4 11 -10z m-750 -50 c0 -5 -4 -10 -10 -10 -5
0 -10 5 -10 10 0 6 5 10 10 10 6 0 10 -4 10 -10z m-40 -32 c0 -18 -2 -20 -9
-8 -6 8 -7 18 -5 22 9 14 14 9 14 -14z m512 -75 c5 -7 71 -51 145 -99 126 -80
136 -85 165 -75 37 13 48 14 48 3 0 -4 -18 -13 -41 -19 -40 -10 -41 -10 -162
66 -67 43 -134 85 -149 95 -26 17 -28 23 -26 75 1 53 2 54 5 11 3 -24 9 -50
15 -57z m280 -4 c7 -21 6 -22 -5 -7 -9 11 -21 15 -35 11 -13 -3 -22 -1 -22 6
0 5 7 8 15 5 30 -12 13 12 -25 36 -22 13 -40 28 -40 32 0 17 104 -60 112 -83z
m168 47 c0 -12 -5 -7 -19 24 -11 24 -11 24 3 6 9 -11 16 -24 16 -30z m-3946 4
c4 -5 -9 -13 -30 -19 -52 -14 -62 -14 -39 3 18 13 18 13 -1 25 -16 10 -13 11
21 6 22 -4 44 -10 49 -15z m3916 -1 c0 -5 -4 -9 -10 -9 -5 0 -10 7 -10 16 0 8
5 12 10 9 6 -3 10 -10 10 -16z m-65 -9 c-9 -14 -47 -29 -58 -23 -5 3 7 13 25
22 36 18 44 19 33 1z m-645 -68 l0 -59 -50 -23 c-27 -13 -53 -20 -57 -17 -3 4
17 17 45 29 l52 22 0 53 c0 29 2 53 5 53 3 0 5 -26 5 -58z m100 28 c-6 -11
-15 -20 -20 -20 -14 0 -12 27 3 33 23 10 28 7 17 -13z m-515 -20 c3 -5 1 -10
-4 -10 -6 0 -11 5 -11 10 0 6 2 10 4 10 3 0 8 -4 11 -10z m195 -5 c0 -8 -4
-15 -10 -15 -5 0 -7 7 -4 15 4 8 8 15 10 15 2 0 4 -7 4 -15z m1020 -22 c0 -7
-8 -13 -17 -13 -13 0 -14 3 -6 11 6 6 9 19 6 28 -4 14 -3 14 6 1 6 -8 11 -21
11 -27z m-999 -33 c21 0 23 -8 10 -28 -6 -10 -12 -7 -24 12 -10 14 -16 31 -16
38 1 7 3 5 6 -4 2 -10 13 -18 24 -18z m49 -30 c0 -5 -4 -10 -9 -10 -6 0 -13 5
-16 10 -3 6 1 10 9 10 9 0 16 -4 16 -10z m917 -26 c-3 -3 -22 -9 -42 -14 -43
-10 -38 0 8 16 31 11 46 10 34 -2z m-3973 -24 c-7 -7 -24 -7 -50 -1 l-39 9 50
1 c33 1 46 -2 39 -9z m-40 -22 c-5 -8 0 -9 14 -6 12 4 25 2 28 -3 3 -5 -15 -9
-40 -9 -43 0 -61 12 -33 23 23 10 38 7 31 -5z m4036 -28 c0 -5 -4 -10 -10 -10
-5 0 -10 5 -10 10 0 6 5 10 10 10 6 0 10 -4 10 -10z m-1210 -21 c0 -5 -4 -9
-10 -9 -5 0 -10 7 -10 16 0 8 5 12 10 9 6 -3 10 -10 10 -16z m1330 1 c0 -5 -2
-10 -4 -10 -3 0 -8 5 -11 10 -3 6 -1 10 4 10 6 0 11 -4 11 -10z m-1250 -71 c0
-5 -7 -6 -15 -3 -8 4 -15 13 -15 21 0 13 3 13 15 3 8 -7 15 -16 15 -21z
m-2876 -65 c17 -7 21 -29 7 -38 -5 -3 -8 2 -7 12 1 12 -7 17 -28 17 -16 0 -31
-6 -33 -12 -3 -7 2 -13 10 -13 9 0 18 6 20 13 3 7 6 5 6 -5 1 -23 -37 -24 -46
-2 -10 26 32 43 71 28z m2786 -3 c0 -6 -4 -13 -10 -16 -5 -3 -10 1 -10 9 0 9
5 16 10 16 6 0 10 -4 10 -9z m-846 -91 c7 -8 -71 -11 -301 -13 -174 -2 -217 2
-180 16 17 7 474 3 481 -3z m2520 0 c6 -7 -88 -11 -312 -13 -150 -2 -189 1
-176 10 11 8 83 11 249 10 129 -1 236 -5 239 -7z m-1888 -45 l24 -24 -2 -1018
-3 -1017 -75 -43 c-41 -24 -78 -43 -82 -43 -5 0 -9 325 -10 723 l-3 722 -92 3
-93 3 0 -726 c0 -399 -3 -725 -8 -725 -4 0 -41 19 -82 43 l-75 42 -3 995 c-1
547 0 1005 3 1017 3 12 18 34 33 48 l27 25 208 0 c208 0 208 0 233 -25z m134
18 c0 -5 -5 -15 -10 -23 -8 -12 -10 -11 -10 8 0 12 5 22 10 22 6 0 10 -3 10
-7z m162 -984 l3 -992 45 -25 c49 -28 77 -26 119 6 l23 19 2 989 1 989 56 3
c48 2 61 -1 84 -21 l27 -23 -1 -1013 c0 -671 -4 -1018 -11 -1026 -6 -7 -65
-40 -132 -75 l-121 -63 -76 38 c-42 20 -102 53 -134 72 l-57 35 2 1010 3 1010
33 29 c26 24 41 29 82 29 l50 0 2 -991z m974 964 c24 -26 24 -27 22 -202 -3
-171 -4 -176 -24 -179 -15 -2 -41 15 -83 54 -60 55 -61 57 -61 109 0 82 2 80
-105 77 l-95 -3 0 -902 0 -902 45 -28 c55 -32 64 -33 115 -7 l40 20 0 331 0
331 30 38 c16 20 44 43 62 50 18 7 43 22 56 33 l22 20 0 -446 0 -446 -67 -39
c-38 -22 -99 -55 -136 -73 l-68 -34 -102 54 c-56 30 -114 63 -129 73 l-28 19
0 1002 c1 813 3 1007 14 1026 26 46 47 50 264 51 l203 0 25 -27z m-2340 -45
c35 -31 36 -34 31 -80 -5 -40 -3 -48 10 -48 13 0 15 8 10 42 -6 47 3 72 34 89
16 8 25 7 39 -6 16 -14 23 -15 53 -4 31 11 38 10 62 -9 34 -27 58 -28 93 -3
15 11 50 21 80 24 l52 4 0 -158 c0 -86 -3 -164 -6 -173 -11 -29 -45 -16 -105
41 -57 54 -59 58 -59 107 0 28 -4 56 -8 63 -5 7 -41 12 -97 14 l-90 2 -3 -188
c-2 -144 1 -190 10 -197 7 -4 77 -8 156 -8 l144 0 29 -29 29 -29 0 -729 0
-729 -62 -37 c-35 -21 -95 -54 -135 -74 l-71 -37 -39 17 c-21 10 -82 43 -135
73 l-98 55 0 489 c0 293 4 499 10 514 15 40 40 32 103 -32 l58 -58 2 -408 2
-407 46 -26 c50 -29 78 -27 122 8 l27 20 0 607 c0 334 -3 617 -6 630 -6 22 -9
22 -153 22 -123 0 -149 3 -167 18 -42 33 -44 50 -44 330 0 256 7 332 31 332 4
0 25 -14 45 -32z m2519 -4 c24 -22 27 -31 22 -70 -4 -44 6 -65 24 -47 5 5 5
22 -1 41 -8 29 -5 37 19 64 26 30 28 30 52 15 21 -14 31 -15 56 -5 26 10 34 8
61 -10 37 -27 52 -27 95 -2 18 11 51 21 73 23 21 3 47 8 57 12 16 7 17 -4 15
-171 -3 -172 -4 -179 -24 -182 -14 -2 -40 16 -82 56 l-62 59 0 62 0 61 -65 1
c-36 1 -76 1 -90 1 -14 0 -29 0 -34 -1 -4 -1 -9 -86 -10 -190 l-2 -188 23 -7
c13 -3 65 -6 117 -6 107 0 104 8 41 -101 l-41 -69 -70 0 -69 0 0 -619 1 -620
24 -19 c13 -11 38 -25 55 -32 28 -12 37 -11 76 8 l44 22 0 393 0 394 65 62
c107 103 100 135 103 -441 l2 -496 -57 -35 c-32 -19 -92 -52 -133 -72 l-76
-37 -94 47 c-51 26 -111 58 -132 71 l-38 24 0 999 c0 550 3 1006 6 1015 8 22
17 20 49 -10z m-1341 -154 c6 -6 2 -18 -9 -30 -16 -17 -17 -25 -7 -40 20 -33
15 -50 -17 -50 -33 0 -39 17 -33 93 4 47 5 48 31 42 14 -3 30 -10 35 -15z
m1624 -123 c2 -37 -1 -48 -17 -56 -41 -22 -71 18 -56 76 8 34 22 43 49 33 16
-6 22 -17 24 -53z m-4290 21 c-4 -30 -38 -37 -45 -9 -3 11 -15 22 -27 24 -11
2 1 5 27 6 45 1 48 -1 45 -21z m2909 -41 c-27 -49 -47 -48 -47 2 0 40 0 40 30
30 26 -10 28 -13 17 -32z m-281 -67 c8 0 14 7 14 15 0 8 5 15 10 15 6 0 10
-22 10 -49 l0 -49 -30 14 c-27 14 -30 20 -29 57 1 23 4 32 6 20 2 -13 11 -23
19 -23z m382 -38 c-31 -4 -32 -5 -17 -33 9 -17 7 -19 -13 -15 -13 3 -44 8 -70
11 -37 5 -48 10 -48 24 0 15 11 17 88 17 48 -1 75 -2 60 -4z m-3008 -71 c0
-22 -21 -33 -40 -21 -8 5 -23 4 -34 -1 -16 -8 -15 -6 3 9 l25 20 -25 5 c-13 2
-3 5 24 6 40 1 47 -2 47 -18z m2639 -30 c-26 -35 -39 -39 -39 -13 0 24 12 39
35 44 29 6 29 3 4 -31z m656 -111 c3 -5 -5 -21 -19 -35 -14 -14 -23 -32 -20
-40 4 -8 1 -15 -6 -15 -9 0 -10 11 -5 38 10 52 34 78 50 52z m-3296 -77 c-2
-24 -2 -25 -6 -5 -5 26 -18 28 -32 5 -10 -17 -10 -17 -11 0 0 25 -28 21 -33
-5 -4 -20 -4 -19 -6 5 -1 26 1 27 44 27 43 0 45 -1 44 -27z m3029 -13 l-3 -22
-25 22 c-17 15 -20 20 -7 16 11 -4 17 0 17 11 0 12 3 14 11 6 6 -6 9 -21 7
-33z m-13 -30 c3 -6 0 -17 -8 -25 -13 -12 -15 -11 -20 10 -4 25 15 36 28 15z
m-619 -67 c-11 -11 -19 6 -11 24 8 17 8 17 12 0 3 -10 2 -21 -1 -24z m894 -13
c0 -5 -4 -10 -10 -10 -5 0 -10 5 -10 10 0 6 5 10 10 10 6 0 10 -4 10 -10z
m-263 -70 c4 -43 -1 -47 -31 -25 -18 14 -18 16 -3 33 9 10 17 25 17 32 0 29
14 -3 17 -40z m-3100 -5 c-9 -21 14 -31 25 -11 11 20 48 21 48 2 0 -8 -5 -18
-12 -22 -8 -5 -9 -2 -5 9 8 21 -6 22 -23 2 -14 -17 -36 -20 -45 -5 -7 12 0 40
11 40 3 0 4 -7 1 -15z m3103 -67 c0 -14 -10 -9 -38 18 l-27 26 33 -18 c17 -10
32 -22 32 -26z m-90 -12 c0 -3 -4 -8 -10 -11 -5 -3 -10 -1 -10 4 0 6 5 11 10
11 6 0 10 -2 10 -4z m885 -30 c-16 -8 -59 -45 -94 -82 -36 -37 -66 -63 -68
-58 -2 5 28 42 66 82 54 57 75 72 97 72 l29 -1 -30 -13z m-3826 -118 c-1 -17
-2 -19 -6 -5 -2 9 -11 17 -19 17 -8 0 -15 -8 -15 -17 -1 -17 -2 -17 -6 0 -2 9
-11 17 -18 17 -7 0 -16 -8 -18 -17 -4 -14 -5 -12 -6 5 -1 20 4 22 44 22 40 0
45 -2 44 -22z m-5 -198 c-7 -7 -24 -7 -50 -1 l-39 9 50 1 c33 1 46 -2 39 -9z
m-39 -19 c-3 -5 7 -12 22 -14 18 -2 10 -5 -19 -6 -61 -1 -64 19 -5 28 5 0 6
-3 2 -8z m45 -209 c0 -14 -7 -17 -40 -14 -50 5 -52 20 -2 25 20 2 38 4 40 5 1
1 2 -6 2 -16z m-69 -205 c-19 -24 1 -28 25 -6 23 22 44 19 44 -6 0 -8 -5 -17
-12 -21 -8 -5 -9 -2 -5 9 9 24 -10 31 -23 7 -12 -22 -35 -27 -45 -10 -9 15 1
40 16 40 8 0 9 -4 0 -13z m310 -691 c5 -6 9 7 10 35 l1 44 9 -35 c10 -44 2
-72 -19 -68 -13 2 -17 15 -18 53 -1 33 0 38 3 15 2 -19 9 -39 14 -44z m88 60
c14 -16 4 -46 -15 -46 -8 0 -14 -6 -14 -14 0 -8 -5 -18 -10 -21 -7 -4 -9 3 -5
19 3 14 7 37 10 51 6 28 17 32 34 11z m-179 -32 c0 -14 5 -34 11 -46 20 -37 3
-28 -25 14 -15 24 -20 35 -10 27 16 -13 17 -12 12 9 -4 12 -2 22 3 22 5 0 9
-12 9 -26z m274 -3 c3 -5 -1 -12 -10 -15 -9 -4 -14 -13 -10 -22 3 -8 2 -12 -4
-9 -5 3 -14 -4 -20 -16 -7 -11 -14 -18 -17 -16 -6 7 38 87 48 87 4 0 10 -4 13
-9z m2066 -13 c0 -43 17 -53 24 -14 5 27 12 36 26 36 19 0 20 -8 20 -218 0
-212 -4 -242 -32 -242 -4 0 -9 71 -9 158 -1 86 -4 146 -6 132 l-5 -25 -13 30
c-12 26 -13 11 -14 -134 -1 -144 -3 -162 -16 -151 -12 10 -15 49 -15 231 0
212 1 219 20 219 14 0 20 -7 20 -22z m170 -207 c0 -222 -5 -260 -30 -235 -5 5
-10 111 -12 237 l-3 227 23 0 22 0 0 -229z m90 162 c0 -65 0 -66 20 -48 15 13
20 31 20 67 0 41 3 48 20 48 18 0 20 -7 20 -54 0 -36 -5 -58 -15 -66 -14 -12
-14 -15 0 -30 12 -13 15 -45 15 -153 0 -126 -2 -137 -20 -147 -20 -10 -20 -8
-20 140 0 82 -4 150 -8 150 -26 0 -32 -30 -32 -162 0 -136 0 -138 -20 -128
-19 10 -20 21 -20 230 0 213 1 220 20 220 18 0 20 -7 20 -67z m210 20 c0 -45
0 -46 -20 -28 -11 10 -20 24 -20 32 0 8 -7 13 -17 11 -14 -2 -18 -13 -18 -43
0 -32 4 -40 22 -45 24 -5 19 -22 -9 -33 -14 -5 -17 -23 -17 -129 0 -116 9
-155 30 -142 5 3 9 42 9 88 0 77 9 106 32 106 5 0 7 -48 6 -107 -3 -104 -4
-108 -29 -122 -24 -13 -29 -13 -53 2 l-26 17 0 220 0 220 55 0 55 0 0 -47z
m118 -85 l-3 -133 -25 0 -25 0 -3 133 -3 132 31 0 31 0 -3 -132z m82 3 c0 -76
-4 -132 -10 -136 -6 -4 -10 27 -10 84 0 54 -4 91 -10 91 -6 0 -10 -35 -10 -85
0 -50 -4 -85 -10 -85 -6 0 -10 50 -10 130 l0 130 30 0 30 0 0 -129z m158 -93
l2 -217 -30 -16 c-27 -14 -33 -14 -60 0 l-30 16 0 220 0 220 58 -3 57 -3 3
-217z m132 2 l0 -220 -26 -17 c-24 -15 -28 -15 -52 0 l-27 16 -3 220 -2 221
55 0 55 0 0 -220z m70 178 c21 -82 29 -87 29 -20 1 48 4 62 16 62 13 0 15 -32
15 -224 0 -190 -2 -225 -15 -230 -13 -4 -15 9 -15 87 -1 60 -7 115 -20 157
l-19 65 0 -158 c-1 -155 -1 -157 -21 -147 -19 10 -20 21 -20 230 0 212 1 220
20 220 14 0 22 -11 30 -42z m-3441 15 c-3 -21 2 -32 15 -27 9 3 13 -1 13 -13
-1 -12 4 -17 16 -17 15 2 16 -1 5 -13 -11 -13 -17 -10 -45 22 -18 21 -30 42
-27 46 6 11 24 12 23 2z m398 -29 c4 -10 -2 -23 -14 -33 -11 -9 -26 -25 -32
-36 -12 -19 -12 -19 -8 3 5 20 2 22 -16 16 -18 -5 -16 0 12 30 39 40 49 44 58
20z m-377 -70 c0 -2 -12 -2 -27 1 -27 6 -27 6 -9 -9 30 -24 7 -19 -31 7 -38
25 -43 41 -10 32 18 -6 20 -5 10 6 -28 29 -10 29 27 -1 22 -17 40 -34 40 -36z
m213 45 c43 -12 101 -59 123 -100 17 -34 17 -39 1 -39 -7 0 -29 -11 -49 -25
-43 -29 -50 -31 -41 -8 5 14 3 13 -14 -3 -11 -10 -18 -25 -15 -31 2 -7 0 -13
-6 -13 -6 0 -18 -3 -28 -7 -14 -5 -16 -2 -11 23 7 29 7 29 -9 7 -24 -33 -37
-28 -19 7 22 43 18 54 -12 32 -32 -22 -113 -39 -113 -24 0 6 20 18 45 28 25 9
43 19 40 22 -7 8 -92 -27 -105 -44 -7 -7 -21 -14 -32 -14 -17 0 -19 5 -13 33
16 71 66 129 131 152 47 17 77 18 127 4z m213 -41 c8 -13 -39 -58 -62 -58 -8
0 -17 7 -21 17 -12 32 65 71 83 41z m-501 -32 c37 -16 46 -42 19 -53 -20 -8
-84 23 -84 40 0 30 16 33 65 13z m515 -47 c-24 -20 -24 -20 -2 -14 13 4 22 2
22 -4 0 -6 -6 -11 -14 -11 -7 0 -29 -3 -47 -6 l-34 -6 25 21 25 22 -27 -7
c-16 -3 -28 -4 -28 0 0 7 58 24 85 25 18 0 18 -1 -5 -20z m-515 -39 c-17 -7
-17 -9 -2 -9 9 -1 17 -5 17 -11 0 -5 -8 -10 -17 -11 -15 0 -15 -2 2 -9 20 -8
19 -9 -1 -9 -12 -1 -37 2 -55 6 l-34 7 30 12 c17 8 23 13 13 14 -9 0 -20 5
-23 10 -4 6 12 10 42 9 36 0 43 -3 28 -9z m435 -32 c0 -46 -27 -115 -52 -136
-14 -11 -21 -6 -52 29 -37 43 -41 55 -30 83 10 26 24 18 24 -13 0 -18 6 -31
16 -35 9 -4 18 -5 19 -4 1 2 14 20 29 41 l28 37 -28 0 -29 1 24 19 c37 32 51
26 51 -22z m108 -12 c-1 -2 -25 0 -53 4 l-50 7 42 2 c23 0 45 7 50 14 5 9 9 7
11 -6 2 -10 2 -20 0 -21z m-392 -1 c-5 -13 -2 -13 19 1 23 15 25 15 25 0 0 -8
-11 -23 -24 -31 -44 -29 -54 -77 -29 -141 10 -25 -76 55 -92 86 -22 44 -29 90
-12 90 9 0 15 -10 15 -26 0 -47 24 -48 61 -4 35 42 47 50 37 25z m-36 -3 c0
-5 -9 -17 -19 -26 -21 -19 -37 -7 -27 19 6 16 46 21 46 7z m270 1 c0 -5 -7
-17 -15 -27 -18 -23 -40 -10 -29 17 6 17 44 25 44 10z m5160 -17 c0 -2 -3 -11
-6 -20 -9 -23 -24 -20 -24 4 0 11 7 20 15 20 8 0 15 -2 15 -4z m41 -39 c-8 -8
-11 -5 -11 9 0 27 14 41 18 19 2 -9 -1 -22 -7 -28z m69 18 c0 -14 -4 -25 -10
-25 -5 0 -10 11 -10 25 0 14 5 25 10 25 6 0 10 -11 10 -25z m50 -1 c0 -14 -4
-23 -10 -19 -5 3 -10 15 -10 26 0 10 5 19 10 19 6 0 10 -12 10 -26z m70 7 c0
-10 -7 -21 -15 -25 -11 -4 -15 1 -15 19 0 16 6 25 15 25 8 0 15 -9 15 -19z
m50 -1 c0 -11 -4 -20 -8 -20 -4 0 -8 9 -9 20 -1 11 2 20 8 20 5 0 9 -9 9 -20z
m60 -18 c0 -7 -4 -10 -10 -7 -5 3 -10 16 -10 28 0 18 2 19 10 7 5 -8 10 -21
10 -28z m49 -4 c1 -5 -3 -8 -9 -8 -5 0 -10 12 -9 28 0 24 1 25 9 7 5 -11 9
-23 9 -27z m29 -85 l3 -63 -236 0 -235 0 0 65 0 65 233 -2 232 -3 3 -62z
m-5791 25 c-3 -7 -5 -2 -5 12 0 14 2 19 5 13 2 -7 2 -19 0 -25z m83 2 c-8 -5
-19 -10 -25 -10 -5 0 -3 5 5 10 8 5 20 10 25 10 6 0 3 -5 -5 -10z m-86 -55 c3
-8 1 -15 -4 -15 -6 0 -10 7 -10 15 0 8 2 15 4 15 2 0 6 -7 10 -15z m181 -5
c-27 -12 -43 -12 -25 0 8 5 22 9 30 9 10 0 8 -3 -5 -9z m4 -24 c-10 -9 -69
-36 -69 -32 0 7 52 35 64 36 5 0 7 -2 5 -4z m5176 -45 c0 -16 -3 -27 -7 -24
-13 7 -7 53 6 53 1 0 1 -13 1 -29z m184 -4 c0 -21 -1 -21 -9 -2 -12 28 -12 37
0 30 6 -3 10 -16 9 -28z m128 -4 c-3 -10 -5 -4 -5 12 0 17 2 24 5 18 2 -7 2
-21 0 -30z m30 -10 c-3 -10 -5 -2 -5 17 0 19 2 27 5 18 2 -10 2 -26 0 -35z
m60 10 c-3 -10 -5 -4 -5 12 0 17 2 24 5 18 2 -7 2 -21 0 -30z m-367 7 c0 -11
-4 -20 -10 -20 -5 0 -10 9 -10 20 0 11 5 20 10 20 6 0 10 -9 10 -20z m30 13
c0 -5 -5 -15 -10 -23 -8 -12 -10 -11 -10 8 0 12 5 22 10 22 6 0 10 -3 10 -7z
m17 -30 c-3 -10 -5 -4 -5 12 0 17 2 24 5 18 2 -7 2 -21 0 -30z m20 5 c-3 -7
-5 -2 -5 12 0 14 2 19 5 13 2 -7 2 -19 0 -25z m50 0 c-3 -7 -5 -2 -5 12 0 14
2 19 5 13 2 -7 2 -19 0 -25z m79 7 c1 -14 -2 -25 -7 -25 -5 0 -9 11 -9 25 0
33 15 33 16 0z m34 6 c0 -11 -4 -23 -10 -26 -6 -4 -10 5 -10 19 0 14 5 26 10
26 6 0 10 -9 10 -19z m30 -1 c0 -11 -4 -20 -10 -20 -5 0 -10 9 -10 20 0 11 5
20 10 20 6 0 10 -9 10 -20z m83 0 c3 -13 0 -20 -9 -20 -8 0 -14 9 -14 20 0 11
4 20 9 20 5 0 11 -9 14 -20z"/>
<path d="M2568 5608 l-58 -10 0 -222 1 -221 32 37 c18 20 58 65 90 101 l57 64
0 132 0 131 -32 -1 c-18 -1 -59 -6 -90 -11z"/>
<path d="M1915 5431 l-70 -27 -3 -219 c-1 -122 1 -215 6 -210 5 6 45 58 90
117 l82 106 0 131 c0 152 6 146 -105 102z"/>
<path d="M4550 4572 l0 -898 44 -37 c49 -41 84 -47 109 -19 16 17 17 92 17
880 l0 862 -32 35 c-18 19 -57 43 -85 55 l-53 20 0 -898z"/>
<path d="M1370 5371 c-236 -128 -293 -172 -319 -250 -8 -24 -11 -313 -11
-1033 l0 -1000 123 7 c142 8 117 -7 288 177 l108 117 -2 1004 c-2 1087 0 1038
-56 1036 -14 0 -73 -26 -131 -58z m20 -1069 l0 -908 -47 -52 c-44 -47 -52 -51
-98 -54 l-50 -3 3 900 c1 495 2 905 2 912 0 10 164 112 183 113 4 0 7 -409 7
-908z"/>
<path d="M1283 5138 l-73 -42 0 -898 0 -898 38 0 c34 0 44 6 80 49 l42 50 0
890 c0 490 -3 891 -7 891 -5 0 -41 -19 -80 -42z"/>
<path d="M5027 5412 c-15 -16 -16 -111 -15 -1021 l0 -1004 56 -61 c30 -33 90
-98 133 -142 l77 -81 126 -8 126 -7 0 480 c0 471 -3 525 -32 543 -6 4 -37 -2
-70 -14 l-58 -21 0 -392 c0 -216 -3 -395 -7 -397 -5 -2 -28 -2 -53 1 -39 4
-51 11 -93 59 l-47 54 1 495 c1 273 4 554 7 625 l5 129 65 -35 c35 -20 66 -35
67 -33 21 22 85 104 85 108 0 4 -51 35 -112 70 l-113 63 3 191 c2 105 4 191 6
193 1 1 44 -21 94 -50 l92 -52 0 -63 c0 -59 4 -70 56 -157 98 -164 106 -158
102 72 -3 167 -4 170 -31 212 -31 47 -97 92 -282 195 -125 69 -161 78 -188 48z"/>
<path d="M5621 4065 l1 -1035 55 -78 c31 -42 64 -88 74 -101 19 -23 19 -7 19
774 0 439 2 796 6 793 3 -3 43 -200 90 -438 l84 -432 0 -439 0 -438 38 -10
c21 -6 52 -14 70 -17 l32 -6 0 1039 0 1040 -67 64 -68 64 -5 -330 c-3 -181 -6
-327 -8 -323 -2 6 -119 564 -150 718 l-18 85 -69 52 c-39 29 -73 53 -77 53 -4
0 -7 -466 -7 -1035z"/>
<path d="M811 5007 c-150 -113 -277 -233 -305 -288 l-26 -53 0 -1013 c0 -774
3 -1013 12 -1013 6 0 38 7 70 16 l58 17 0 722 0 723 63 55 c59 52 64 60 96
153 19 55 36 105 39 113 6 15 -56 -30 -147 -107 l-51 -44 0 195 0 196 83 70
82 69 5 -60 c5 -59 6 -62 40 -74 49 -18 85 -17 101 3 16 19 23 311 8 350 -14
37 -50 29 -128 -30z"/>
<path d="M2420 2914 c0 -166 2 -193 16 -198 9 -3 51 -6 95 -6 l79 0 -2 197 -3
197 -92 0 -93 1 0 -191z"/>
<path d="M162 2939 c2 -6 8 -10 13 -10 5 0 11 4 13 10 2 6 -4 11 -13 11 -9 0
-15 -5 -13 -11z"/>
<path d="M162 2719 c2 -6 8 -10 13 -10 5 0 11 4 13 10 2 6 -4 11 -13 11 -9 0
-15 -5 -13 -11z"/>
<path d="M3240 655 c0 -70 4 -115 10 -115 6 0 10 45 10 115 0 70 -4 115 -10
115 -6 0 -10 -45 -10 -115z"/>
<path d="M3320 745 c0 -14 5 -25 10 -25 6 0 10 11 10 25 0 14 -4 25 -10 25 -5
0 -10 -11 -10 -25z"/>
<path d="M3442 563 c3 -168 5 -198 18 -198 13 0 15 29 18 189 2 187 0 205 -31
206 -4 0 -6 -89 -5 -197z"/>
<path d="M3578 573 c-3 -177 2 -220 23 -207 5 3 9 93 9 200 0 163 -2 194 -15
194 -12 0 -15 -31 -17 -187z"/>
<path d="M645 720 c-3 -5 -2 -10 4 -10 5 0 13 5 16 10 3 6 2 10 -4 10 -5 0
-13 -4 -16 -10z"/>
<path d="M371 638 c1 -42 3 -48 9 -28 8 25 8 25 9 2 1 -29 21 -19 22 11 1 17
3 15 9 -8 l8 -30 0 35 c0 19 -3 44 -8 55 -8 19 -9 19 -9 -2 -1 -28 -21 -41
-21 -14 0 11 -4 23 -10 26 -6 4 -10 -14 -9 -47z"/>
<path d="M442 643 c3 -40 6 -48 23 -48 17 0 20 8 23 50 4 60 -15 51 -21 -10
l-4 -40 -1 42 c-1 23 -7 45 -13 48 -7 5 -9 -9 -7 -42z"/>
<path d="M507 683 c-4 -3 -7 -27 -7 -52 0 -32 3 -42 9 -31 6 8 8 17 5 21 -2 4
1 11 7 15 8 4 7 9 -2 15 -11 8 -10 12 5 24 15 12 16 15 5 15 -9 0 -19 -3 -22
-7z"/>
<path d="M486 551 c-4 -5 -2 -20 3 -33 9 -21 10 -21 10 10 1 32 -3 39 -13 23z"/>
<path d="M670 650 c-19 -15 -21 -20 -9 -20 9 0 27 9 40 20 32 26 3 27 -31 0z"/>
<path d="M180 621 c0 -5 14 -14 30 -20 33 -11 41 2 11 19 -24 12 -41 13 -41 1z"/>
<path d="M5746 409 c-9 -28 -12 -89 -4 -89 4 0 8 6 8 13 0 8 4 7 10 -3 7 -10
8 1 4 35 -7 55 -11 65 -18 44z"/>
<path d="M5797 414 c-4 -4 -7 -27 -7 -51 0 -37 3 -43 21 -43 18 0 20 5 17 47
-3 44 -15 62 -31 47z m20 -66 c-2 -13 -4 -5 -4 17 -1 22 1 32 4 23 2 -10 2
-28 0 -40z"/>
<path d="M5861 373 c-1 -29 3 -53 8 -53 10 0 25 89 17 98 -3 3 -6 -6 -7 -19
l-1 -24 -8 25 c-6 20 -8 14 -9 -27z"/>
<path d="M5917 413 c-11 -10 -8 -93 3 -93 6 0 10 23 10 50 0 51 -1 55 -13 43z"/>
<path d="M5957 407 c-3 -8 1 -27 9 -42 18 -34 18 -36 -3 -28 -11 4 -14 3 -9
-5 10 -17 36 -15 36 3 0 9 -8 28 -17 42 -17 26 -17 27 0 20 12 -5 17 -3 15 5
-6 18 -25 21 -31 5z"/>
<path d="M6015 397 c-10 -38 -2 -71 18 -75 16 -3 18 3 15 44 -3 52 -24 70 -33
31z m25 -33 c0 -21 -4 -33 -10 -29 -5 3 -10 19 -10 36 0 16 5 29 10 29 6 0 10
-16 10 -36z"/>
<path d="M6081 368 c1 -40 3 -47 8 -28 l8 25 5 -25 c3 -14 5 -3 4 24 0 30 -6
51 -13 54 -10 3 -13 -11 -12 -50z"/>
<path d="M6160 404 c0 -16 -2 -17 -10 -4 -8 12 -10 10 -9 -10 1 -14 4 -36 8
-50 6 -21 8 -17 13 25 4 28 4 52 2 54 -2 2 -4 -4 -4 -15z"/>
</g>
</svg>
